<svg xmlns="http://www.w3.org/2000/svg" xmlns:xlink="http://www.w3.org/1999/xlink" viewBox="0 0 1000 340" width="1000" height="340" role="img" aria-label="Fayek Ahanaf"><title>Fayek Ahanaf</title><desc>A robot follows a line of tape under the name Fayek Ahanaf. Silver medal sticker, World Robot Games 2026.</desc><defs><pattern id="g" width="40" height="40" patternUnits="userSpaceOnUse"><path d="M40 0H0V40" fill="none" stroke="#D3D8CC" stroke-width="1"/></pattern><pattern id="chk" width="12" height="12" patternUnits="userSpaceOnUse"><rect width="6" height="6" fill="#111418"/><rect x="6" y="6" width="6" height="6" fill="#111418"/></pattern><path id="trk" d="M0 288 H250 C310 288 310 238 370 238 H560 C620 238 620 300 680 300 H790 C850 300 850 262 910 262 H1000"/></defs><rect width="1000" height="340" rx="18" fill="#E9ECE4"/><rect width="1000" height="340" rx="18" fill="url(#g)"/><path d="M10 18h16M18 10v16M974 18h16M982 10v16M10 322h16M18 314v16M974 322h16M982 314v16" stroke="#111418" stroke-width="1.5" opacity=".4"/><text x="52" y="128" font-family="'Arial Black','Helvetica Neue',Arial,sans-serif" font-size="76" font-weight="900" letter-spacing="-3" fill="#111418">Fayek Ahanaf</text><text x="54" y="176" font-family="'JetBrains Mono','SFMono-Regular',Consolas,'Liberation Mono',monospace" font-size="24" fill="#2B323B" opacity="0">I build AI apps and web interfaces.<animate attributeName="opacity" values="0;1;1;0;0" keyTimes="0;0.06;0.30;0.36;1" dur="9s" begin="0s" repeatCount="indefinite"/></text><text x="54" y="176" font-family="'JetBrains Mono','SFMono-Regular',Consolas,'Liberation Mono',monospace" font-size="24" fill="#2B323B" opacity="0">I program robots that run laps.<animate attributeName="opacity" values="0;1;1;0;0" keyTimes="0;0.06;0.30;0.36;1" dur="9s" begin="3s" repeatCount="indefinite"/></text><text x="54" y="176" font-family="'JetBrains Mono','SFMono-Regular',Consolas,'Liberation Mono',monospace" font-size="24" fill="#2B323B" opacity="0">Build, break, learn, build again.<animate attributeName="opacity" values="0;1;1;0;0" keyTimes="0;0.06;0.30;0.36;1" dur="9s" begin="6s" repeatCount="indefinite"/></text><text x="54" y="208" font-family="'JetBrains Mono','SFMono-Regular',Consolas,'Liberation Mono',monospace" font-size="14" fill="#5B6470">CIS student at Daffodil International University</text><use href="#trk" xlink:href="#trk" fill="none" stroke="#111418" stroke-width="9"/><rect x="36" y="276" width="24" height="24" fill="url(#chk)" stroke="#111418" stroke-width="2"/><g transform="translate(768 34) rotate(-4)"><rect width="212" height="92" rx="10" fill="#FFC400" stroke="#111418" stroke-width="3"/><text x="16" y="40" font-family="'Arial Black','Helvetica Neue',Arial,sans-serif" font-size="30" fill="#111418">Silver</text><text x="16" y="62" font-family="'JetBrains Mono','SFMono-Regular',Consolas,'Liberation Mono',monospace" font-size="13" fill="#111418">World Robot Games 2026</text><text x="16" y="79" font-family="'JetBrains Mono','SFMono-Regular',Consolas,'Liberation Mono',monospace" font-size="10.5" fill="#111418">Bangladesh national qualifier</text></g><g><g transform="scale(1.0)"><rect x="-12" y="-16.5" width="16" height="5.5" rx="2" fill="#111418"/><rect x="-12" y="11" width="16" height="5.5" rx="2" fill="#111418"/><rect x="-18" y="-11" width="36" height="22" rx="5" fill="#FFC400" stroke="#111418" stroke-width="2"/><rect x="19" y="-10.5" width="5" height="21" rx="1.5" fill="#111418"/><circle cx="21.5" cy="-8" r="1.9" fill="#E5382B"><animate attributeName="opacity" values="1;.2;1" dur="0.9s" begin="0.0s" repeatCount="indefinite"/></circle><circle cx="21.5" cy="-4" r="1.9" fill="#E5382B"><animate attributeName="opacity" values="1;.2;1" dur="0.9s" begin="0.15s" repeatCount="indefinite"/></circle><circle cx="21.5" cy="0" r="1.9" fill="#E5382B"><animate attributeName="opacity" values="1;.2;1" dur="0.9s" begin="0.3s" repeatCount="indefinite"/></circle><circle cx="21.5" cy="4" r="1.9" fill="#E5382B"><animate attributeName="opacity" values="1;.2;1" dur="0.9s" begin="0.44999999999999996s" repeatCount="indefinite"/></circle><circle cx="21.5" cy="8" r="1.9" fill="#E5382B"><animate attributeName="opacity" values="1;.2;1" dur="0.9s" begin="0.6s" repeatCount="indefinite"/></circle></g><animateMotion dur="9s" repeatCount="indefinite" rotate="auto"><mpath href="#trk" xlink:href="#trk"/></animateMotion></g></svg>